<svg width="22" height="18" viewBox="0 0 22 18" fill="none" xmlns="http://www.w3.org/2000/svg">
<path d="M21.5 2.76462C20.7294 3.09436 19.8959 3.31391 19.0269 3.41233C19.9171 2.90173 20.5974 2.09335 20.9216 1.13103C20.089 1.6021 19.166 1.94783 18.1863 2.13289C17.3989 1.33123 16.2792 0.833252 15.0409 0.833252C12.6617 0.833252 10.7343 2.67798 10.7343 4.95591C10.7343 5.27724 10.7715 5.59101 10.845 5.89468C7.26556 5.72139 4.09094 4.08024 1.96685 1.58359C1.59748 2.19177 1.38489 2.90257 1.38489 3.65712C1.38489 5.08545 2.14312 6.34976 3.30083 7.08832C2.59486 7.06897 1.93142 6.88055 1.34857 6.57436V6.62483C1.34857 8.62349 2.83314 10.2916 4.80576 10.6684C4.44436 10.7626 4.06348 10.8131 3.6702 10.8131C3.39118 10.8131 3.12456 10.7862 2.85794 10.7382C3.40801 12.376 4.99886 13.5697 6.88114 13.6058C5.40455 14.712 3.55062 15.3715 1.52927 15.3715C1.18116 15.3715 0.840138 15.353 0.5 15.3135C2.41151 16.4877 4.67467 17.1666 7.10612 17.1666C15.0294 17.1666 19.3635 10.8804 19.3635 5.43118C19.3635 5.25117 19.36 5.07368 19.3511 4.89703C20.1917 4.31997 20.9225 3.59403 21.5 2.76462Z" fill="#06AA65"/>
</svg>
