<svg width="21" height="18" viewBox="0 0 21 18" fill="none" xmlns="http://www.w3.org/2000/svg">
<path d="M2.90126 4.11596C2.92642 3.86083 2.83163 3.60866 2.64601 3.43695L0.755252 1.09921V0.75H6.62605L11.1639 10.9643L15.1534 0.75H20.75V1.09921L19.1334 2.69004C18.994 2.79907 18.9249 2.97828 18.9538 3.15564V14.8444C18.9249 15.0217 18.994 15.2009 19.1334 15.31L20.7122 16.9008V17.25H12.771V16.9008L14.4065 15.2712C14.5672 15.1063 14.5672 15.0578 14.5672 14.8056V5.35758L10.02 17.2112H9.40546L4.11134 5.35758V13.302C4.0672 13.636 4.17529 13.9723 4.40441 14.2138L6.53151 16.862V17.2112H0.5V16.862L2.6271 14.2138C2.85456 13.9719 2.95634 13.6334 2.90126 13.302V4.11596Z" fill="#A7B3CB" fill-opacity="0.47"/>
</svg>
