<svg width="22" height="17" viewBox="0 0 22 17" fill="none" xmlns="http://www.w3.org/2000/svg">
<path d="M18.4689 1.93335C17.0952 1.30303 15.6221 0.838629 14.0818 0.572649C14.0538 0.567516 14.0258 0.580344 14.0113 0.606002C13.8218 0.942965 13.612 1.38256 13.465 1.72808C11.8084 1.48007 10.1603 1.48007 8.53762 1.72808C8.39063 1.37488 8.17315 0.942965 7.98285 0.606002C7.9684 0.5812 7.94038 0.568372 7.91233 0.572649C6.37294 0.837779 4.89981 1.30218 3.52523 1.93335C3.51333 1.93848 3.50313 1.94704 3.49636 1.95816C0.702159 6.13263 -0.06329 10.2045 0.312214 14.2259C0.313913 14.2456 0.324957 14.2644 0.340249 14.2764C2.18378 15.6302 3.96956 16.4521 5.72218 16.9969C5.75023 17.0055 5.77995 16.9952 5.7978 16.9721C6.21238 16.4059 6.58194 15.809 6.89881 15.1812C6.91751 15.1444 6.89966 15.1008 6.86144 15.0863C6.27525 14.8639 5.71708 14.5928 5.18016 14.2849C5.13769 14.2601 5.13429 14.1994 5.17336 14.1703C5.28635 14.0856 5.39937 13.9975 5.50725 13.9086C5.52677 13.8923 5.55397 13.8889 5.57692 13.8992C9.10426 15.5096 12.923 15.5096 16.4087 13.8992C16.4317 13.8881 16.4589 13.8915 16.4792 13.9077C16.5872 13.9967 16.7002 14.0856 16.814 14.1703C16.8531 14.1994 16.8505 14.2601 16.808 14.2849C16.2711 14.5988 15.713 14.8639 15.1259 15.0854C15.0877 15.1 15.0707 15.1444 15.0894 15.1812C15.4131 15.8081 15.7826 16.4051 16.1896 16.9712C16.2066 16.9952 16.2371 17.0055 16.2652 16.9969C18.0263 16.4521 19.8121 15.6302 21.6556 14.2764C21.6717 14.2644 21.6819 14.2464 21.6836 14.2267C22.133 9.57758 20.9309 5.5391 18.4969 1.95901C18.491 1.94704 18.4808 1.93848 18.4689 1.93335ZM7.42556 11.7773C6.36359 11.7773 5.48855 10.8023 5.48855 9.60496C5.48855 8.4076 6.34662 7.43263 7.42556 7.43263C8.51297 7.43263 9.37953 8.41616 9.36253 9.60496C9.36253 10.8023 8.50447 11.7773 7.42556 11.7773ZM14.5873 11.7773C13.5254 11.7773 12.6503 10.8023 12.6503 9.60496C12.6503 8.4076 13.5084 7.43263 14.5873 7.43263C15.6747 7.43263 16.5413 8.41616 16.5243 9.60496C16.5243 10.8023 15.6747 11.7773 14.5873 11.7773Z" fill="#A7B3CB" fill-opacity="0.47"/>
</svg>
