<svg width="22" height="21" viewBox="0 0 22 21" fill="none" xmlns="http://www.w3.org/2000/svg">
<path d="M21.1458 1.14505C20.7858 0.839767 20.2203 0.796087 19.6357 1.03081H19.6347C19.0199 1.27753 2.22946 8.47945 1.54594 8.77369C1.42162 8.81689 0.335864 9.22201 0.447704 10.1244C0.547544 10.938 1.42018 11.275 1.52674 11.3138L5.79538 12.7754C6.07858 13.7182 7.12258 17.1962 7.35346 17.9393C7.49746 18.4025 7.73218 19.0111 8.14354 19.1364C8.5045 19.2756 8.86354 19.1484 9.09586 18.966L11.7056 16.5454L15.9186 19.831L16.0189 19.891C16.305 20.0177 16.5791 20.081 16.8407 20.081C17.0427 20.081 17.2367 20.0431 17.4219 19.9673C18.0531 19.7081 18.3056 19.1066 18.332 19.0385L21.4789 2.68153C21.6709 1.80793 21.404 1.36345 21.1458 1.14505ZM9.56002 13.3601L8.12002 17.2001L6.68002 12.4001L17.72 4.24009L9.56002 13.3601Z" fill="#A7B3CB" fill-opacity="0.47"/>
</svg>
